<?xml version="1.0" encoding="UTF-8"?>
<svg version="1.1" xmlns="http://www.w3.org/2000/svg" width="246" height="246">
<path d="M0 0 C1.15242188 0.01804688 2.30484375 0.03609375 3.4921875 0.0546875 C4.36101562 0.07789063 5.22984375 0.10109375 6.125 0.125 C8.75234587 7.5200015 11.3768202 14.91601975 14 22.3125 C14.38705109 23.40357056 14.77410217 24.49464111 15.17288208 25.61877441 C20.27898211 40.01771347 25.3522583 54.42576237 30.25537109 68.89526367 C30.61324707 69.94560791 30.97112305 70.99595215 31.33984375 72.078125 C31.64011475 72.96661133 31.94038574 73.85509766 32.24975586 74.77050781 C33.07248922 76.98374088 34.02440944 79.03814239 35.125 81.125 C35.22296875 80.36316406 35.3209375 79.60132812 35.421875 78.81640625 C36.40946115 71.99695358 37.94214587 66.24349629 41.125 60.125 C41.785 60.125 42.445 60.125 43.125 60.125 C43.434375 59.2896875 43.434375 59.2896875 43.75 58.4375 C47.46193558 52.19469925 54.80177125 48.40316491 61.375 45.875 C66.33490199 44.8830196 71.0892759 44.9894814 76.125 45.125 C82.41165837 56.16774142 88.4643563 67.31454005 94.375 78.5625 C95.92056309 81.49939052 97.46747091 84.43556825 99.015625 87.37109375 C99.37797241 88.05835541 99.74031982 88.74561707 100.11364746 89.45370483 C102.71796876 94.38221661 105.38759978 99.268852 108.125 104.125 C108.22683594 103.35236816 108.32867187 102.57973633 108.43359375 101.78369141 C109.58571758 93.50948249 111.65695073 88.83007843 118.25 83.6875 C123.94053163 80.79865243 130.51350258 81.28734988 136.4375 83.1875 C140.80525158 86.33634416 144.40523395 89.96570184 146.125 95.125 C146.86872688 103.52053229 145.84781355 111.91627339 144.875 120.25 C144.76575195 121.2505542 144.65650391 122.2511084 144.54394531 123.28198242 C142.91586947 136.30338432 138.53717137 147.37704126 128.17578125 155.80859375 C121.49073033 160.09975977 112.8373476 162.77179281 104.9375 161.6875 C101.36489408 159.70271893 100.52826792 157.68367434 98.984375 154 C98.17166202 151.93953766 98.17166202 151.93953766 96.125 150.125 C95.08517403 148.16646416 94.09332996 146.18235282 93.125 144.1875 C89.71351888 137.21345522 86.10016305 130.35630552 82.4140625 123.52368164 C82.0015625 122.75016357 81.5890625 121.97664551 81.1640625 121.1796875 C80.79490723 120.49374512 80.42575195 119.80780273 80.04541016 119.10107422 C79.12350881 117.12179849 78.57951799 115.25581371 78.125 113.125 C77.465 113.125 76.805 113.125 76.125 113.125 C74.475 109.825 72.825 106.525 71.125 103.125 C70.856875 104.836875 70.58875 106.54875 70.3125 108.3125 C70.0340625 110.0759375 70.0340625 110.0759375 69.75 111.875 C69.2711438 115.0148419 68.87350577 118.15845125 68.5 121.3125 C66.2520295 139.68514646 66.2520295 139.68514646 61.125 147.125 C60.25875 148.48625 60.25875 148.48625 59.375 149.875 C49.96131529 159.28868471 40.03716109 161.554188 27.125 162.125 C26.14149975 160.04370896 25.16335542 157.95988641 24.1875 155.875 C23.64222656 154.71484375 23.09695312 153.5546875 22.53515625 152.359375 C21.44275943 149.85382219 20.70091103 147.75925973 20.125 145.125 C18.3121281 139.32040547 16.36703252 133.60286348 14 128 C12.23497858 123.7460226 11.31206376 119.60365172 10.6171875 115.05859375 C10.45476562 114.42050781 10.29234375 113.78242188 10.125 113.125 C9.135 112.63 9.135 112.63 8.125 112.125 C7.37890625 110.41015625 7.37890625 110.41015625 6.6875 108.1875 C6.4296875 107.37152344 6.171875 106.55554688 5.90625 105.71484375 C5.15650733 103.22944678 4.420654 100.74033289 3.6875 98.25 C2.59343845 94.54894386 1.35784016 90.92735328 0.02734375 87.3046875 C-0.32980713 86.32999512 -0.68695801 85.35530273 -1.05493164 84.35107422 C-1.3255542 83.61646973 -1.59617676 82.88186523 -1.875 82.125 C-2.28202123 85.46165797 -2.68838004 88.798395 -3.09375 92.13525391 C-3.45072567 95.07272747 -3.81049483 98.00984261 -4.171875 100.94677734 C-5.04286476 108.0553894 -5.89255333 115.16407063 -6.64263916 122.28659058 C-6.96711981 125.36676089 -7.30245828 128.44571698 -7.63781738 131.52471924 C-7.79485151 132.99803553 -7.94621975 134.47196769 -8.0916748 135.94647217 C-9.62874644 151.49461104 -9.62874644 151.49461104 -15.47265625 157.8671875 C-20.90661476 162.06944875 -25.17387306 162.85430246 -31.875 162.125 C-36.99453866 160.82440523 -40.79620691 158.87047065 -43.875 154.5 C-46.3421108 149.97412778 -47.0082408 145.24525363 -46.875 140.125 C-46.38 139.135 -46.38 139.135 -45.875 138.125 C-45.6771035 136.4903057 -45.53032722 134.84926979 -45.41015625 133.20703125 C-45.33337646 132.20712158 -45.25659668 131.20721191 -45.17749023 130.17700195 C-45.09829346 129.10796631 -45.01909668 128.03893066 -44.9375 126.9375 C-44.29615044 118.7203227 -43.48444341 110.59943295 -42.30859375 102.44140625 C-41.86983224 99.08547366 -41.60010101 95.75151511 -41.375 92.375 C-41.09984932 88.29276453 -40.60948029 84.38776789 -39.8125 80.375 C-39.00087784 76.25721112 -38.76715426 72.4742838 -38.86328125 68.2890625 C-38.90135393 61.25830743 -37.4406412 54.24236917 -36.33984375 47.32421875 C-35.9359194 44.54426878 -35.65554981 41.79904759 -35.4375 39 C-34.45437353 28.7021668 -31.23724538 18.45663324 -24.625 10.375 C-16.90377412 4.05763337 -10.27878156 -0.20977105 0 0 Z " fill="#AD72CF" transform="translate(79.875,32.875)"/>
<path d="M0 0 C1.15242188 0.01804688 2.30484375 0.03609375 3.4921875 0.0546875 C4.36101562 0.07789063 5.22984375 0.10109375 6.125 0.125 C5.54655543 5.77134437 4.96269601 11.41711106 4.375 17.0625 C4.28607483 17.91733978 4.19714966 18.77217957 4.10552979 19.65292358 C3.14905005 28.81581981 2.17077523 37.97407517 1.0390625 47.1171875 C0.95136597 47.8265596 0.86366943 48.5359317 0.77331543 49.26679993 C0.36493639 52.5521296 -0.05190251 55.83599183 -0.47949219 59.11889648 C-1.48038064 67.03000695 -2.20363216 74.92916084 -2.8125 82.87890625 C-3.77328365 95.36855974 -4.99348313 107.82000071 -6.36962891 120.27050781 C-6.62664983 122.62163892 -6.87646645 124.97356709 -7.11962891 127.32617188 C-7.47837369 130.79483007 -7.85786445 134.2606565 -8.2421875 137.7265625 C-8.34651093 138.77131744 -8.45083435 139.81607239 -8.55831909 140.89248657 C-9.34800119 147.71804209 -10.71923461 152.68374973 -15.47265625 157.8671875 C-20.90661476 162.06944875 -25.17387306 162.85430246 -31.875 162.125 C-36.99453866 160.82440523 -40.79620691 158.87047065 -43.875 154.5 C-46.3421108 149.97412778 -47.0082408 145.24525363 -46.875 140.125 C-46.38 139.135 -46.38 139.135 -45.875 138.125 C-45.6771035 136.4903057 -45.53032722 134.84926979 -45.41015625 133.20703125 C-45.33337646 132.20712158 -45.25659668 131.20721191 -45.17749023 130.17700195 C-45.09829346 129.10796631 -45.01909668 128.03893066 -44.9375 126.9375 C-44.29615044 118.7203227 -43.48444341 110.59943295 -42.30859375 102.44140625 C-41.86983224 99.08547366 -41.60010101 95.75151511 -41.375 92.375 C-41.09984932 88.29276453 -40.60948029 84.38776789 -39.8125 80.375 C-39.00087784 76.25721112 -38.76715426 72.4742838 -38.86328125 68.2890625 C-38.90135393 61.25830743 -37.4406412 54.24236917 -36.33984375 47.32421875 C-35.9359194 44.54426878 -35.65554981 41.79904759 -35.4375 39 C-34.45437353 28.7021668 -31.23724538 18.45663324 -24.625 10.375 C-16.90377412 4.05763337 -10.27878156 -0.20977105 0 0 Z " fill="#AE70CE" transform="translate(79.875,32.875)"/>
<path d="M0 0 C1.68984013 2.5347602 2.58135214 4.33517427 3.55297852 7.15063477 C3.84440735 7.98829376 4.13583618 8.82595276 4.43609619 9.68899536 C4.74722351 10.59729095 5.05835083 11.50558655 5.37890625 12.44140625 C5.70719421 13.38885712 6.03548218 14.33630798 6.37371826 15.31246948 C7.44058632 18.39446639 8.5015054 21.47847678 9.5625 24.5625 C10.29083518 26.66884803 11.01959545 28.77504913 11.7487793 30.88110352 C14.60542412 39.13679148 17.44958279 47.39677062 20.29005432 55.65803528 C20.92379784 57.50066772 21.55843489 59.34299277 22.19311523 61.18530273 C22.91416841 63.2802099 23.63263375 65.37601047 24.34790039 67.47290039 C24.81957642 68.8456311 24.81957642 68.8456311 25.30078125 70.24609375 C25.5851001 71.07963379 25.86941895 71.91317383 26.16235352 72.77197266 C27.04261713 75.25217663 27.04261713 75.25217663 28.796875 78.42578125 C30.5801857 83.72360362 29.70082227 88.28462864 28.9375 93.75 C28.63623028 96.15228254 28.33547621 98.55462979 28.03515625 100.95703125 C27.86773926 102.24432129 27.70032227 103.53161133 27.52783203 104.85791016 C26.65684843 111.6104136 25.90405271 118.37706139 25.13674927 125.14196777 C24.88104855 127.3844544 24.62074124 129.62635998 24.35913086 131.86816406 C23.42684104 139.90180414 22.60349508 147.93379661 22 156 C21.01 156 20.02 156 19 156 C16.73674051 150.49694773 14.61141449 144.99286582 12.77734375 139.33203125 C11.92743858 136.78231574 10.99938073 134.26900617 10.0625 131.75 C4 115.20101351 4 115.20101351 4 111 C3.34 110.67 2.68 110.34 2 110 C1.25390625 108.28515625 1.25390625 108.28515625 0.5625 106.0625 C0.3046875 105.24652344 0.046875 104.43054688 -0.21875 103.58984375 C-0.96849267 101.10444678 -1.704346 98.61533289 -2.4375 96.125 C-3.81726811 91.46006973 -5.44015207 86.90734229 -7.1328125 82.34765625 C-11.32770273 70.99121917 -7.52914952 56.02714716 -6.0625 44.125 C-5.88123583 42.62587643 -5.70049506 41.12668949 -5.52026367 39.62744141 C-5.25464668 37.417952 -4.98880961 35.20849428 -4.7212677 32.99923706 C-3.8959128 26.17913407 -3.13568051 19.35309327 -2.39453125 12.5234375 C-2.26433594 11.36070313 -2.13414063 10.19796875 -2 9 C-1.92185059 8.27586914 -1.84370117 7.55173828 -1.76318359 6.80566406 C-1.11380189 1.11380189 -1.11380189 1.11380189 0 0 Z " fill="#4044B9" transform="translate(86,35)"/>
<path d="M0 0 C4.36775158 3.14884416 7.96773395 6.77820184 9.6875 11.9375 C10.43122688 20.33303229 9.41031355 28.72877339 8.4375 37.0625 C8.32825195 38.0630542 8.21900391 39.0636084 8.10644531 40.09448242 C6.47836947 53.11588432 2.09967137 64.18954126 -8.26171875 72.62109375 C-14.07551956 76.35300017 -21.42995758 78.66759638 -28.3125 78.9375 C-31.75 78 -31.75 78 -34.3125 76.9375 C-33.3225 76.4425 -33.3225 76.4425 -32.3125 75.9375 C-32.33497803 75.17526123 -32.35745605 74.41302246 -32.38061523 73.62768555 C-32.5242965 64.83796763 -31.62566854 56.43942279 -30.375 47.75 C-28.96684674 37.65072421 -27.85433452 27.67302208 -27.68359375 17.46875 C-26.85674306 9.6006129 -23.09819913 5.16647867 -17.1875 0.125 C-11.6333846 -2.16909114 -5.66021321 -1.81554009 0 0 Z " fill="#AD72CF" transform="translate(216.3125,116.0625)"/>
<path d="M0 0 C4.13141584 1.37713861 4.93979892 4.08788642 6.80859375 7.76171875 C7.17183746 8.45617599 7.53508118 9.15063324 7.90933228 9.86613464 C9.09421002 12.13545139 10.26580154 14.41135486 11.4375 16.6875 C12.65165673 19.02170844 13.86908086 21.35419155 15.08683777 23.68652344 C15.8992922 25.24292443 16.71066196 26.7998921 17.52095032 28.35742188 C21.41038029 35.82338193 25.44905141 43.20218633 29.55834961 50.54956055 C30.0044458 51.35562744 30.45054199 52.16169434 30.91015625 52.9921875 C31.29308838 53.67651855 31.67602051 54.36084961 32.07055664 55.06591797 C34.20926204 59.51635774 34.05936631 63.59748643 33.75 68.4375 C33.68329102 69.54109863 33.68329102 69.54109863 33.61523438 70.66699219 C33.13289951 77.64341397 32.14010548 84.52338157 31.09350586 91.43408203 C30.06452044 98.28336578 29.37231374 105.08009985 29 112 C28.01 112 27.02 112 26 112 C25.54625 110.88625 25.0925 109.7725 24.625 108.625 C23.27534014 105.03800992 23.27534014 105.03800992 21 103 C19.96017403 101.04146416 18.96832996 99.05735282 18 97.0625 C14.58851888 90.08845522 10.97516305 83.23130552 7.2890625 76.39868164 C6.8765625 75.62516357 6.4640625 74.85164551 6.0390625 74.0546875 C5.48532959 73.02577393 5.48532959 73.02577393 4.92041016 71.97607422 C3.99850881 69.99679849 3.45451799 68.13081371 3 66 C2.34 66 1.68 66 1 66 C-0.65 62.7 -2.3 59.4 -4 56 C-4.66 56 -5.32 56 -6 56 C-6.14240432 50.06648671 -5.61477579 44.54089282 -4.6875 38.6875 C-2.74394185 25.83508972 -1.37224599 12.92382156 0 0 Z " fill="#4144BA" transform="translate(155,80)"/>
<path d="M0 0 C1.0625 1.8125 1.0625 1.8125 2 4 C1.67 4.99 1.34 5.98 1 7 C1.66 7 2.32 7 3 7 C3 8.65 3 10.3 3 12 C2.34 12 1.68 12 1 12 C-0.32758563 18.96982457 -0.07995299 25.92860242 0 33 C0 33.99 0 34.98 0 36 C-0.495 36.495 -0.495 36.495 -1 37 C-0.01 37.33 0.98 37.66 2 38 C2.25 43.625 2.25 43.625 0 47 C0.99 46.34 1.98 45.68 3 45 C4.32 45 5.64 45 7 45 C7 45.66 7 46.32 7 47 C7.99 47 8.98 47 10 47 C10.474375 47.515625 10.94875 48.03125 11.4375 48.5625 C12.87611828 50.21158017 12.87611828 50.21158017 14.875 50 C17.25639182 49.0258744 17.25639182 49.0258744 19.5 46.5 C21.86560612 44.13439388 22.77609362 43.35821182 26 43 C25.979375 41.9275 25.95875 40.855 25.9375 39.75 C26.0008559 35.94864571 26.31906668 33.36186665 28 30 C28.99 30.33 29.98 30.66 31 31 C31.3336264 37.72195406 31.62022933 44.08695876 28 50 C24.91445572 53.38060999 21.69978881 55.66930298 17.0546875 56.23828125 C11.00012419 56.44444022 6.0564455 55.4689568 1 52 C-3.48350453 47.36704532 -4.60694035 42.38948987 -5.0546875 36.1015625 C-5 34 -5 34 -4 32 C-3.80216988 30.28304564 -3.65536558 28.5600659 -3.53515625 26.8359375 C-3.45716797 25.79566406 -3.37917969 24.75539062 -3.29882812 23.68359375 C-3.1429614 21.50145958 -2.98926685 19.31916902 -2.83789062 17.13671875 C-2.38877103 11.19957678 -1.65600494 5.72326394 0 0 Z " fill="#F41BA8" transform="translate(38,139)"/>
<path d="M0 0 C1.15242188 0.01804688 2.30484375 0.03609375 3.4921875 0.0546875 C4.36101562 0.07789063 5.22984375 0.10109375 6.125 0.125 C5.596825 5.31756759 5.06356579 10.5095806 4.52587891 15.70117188 C4.34419065 17.46210085 4.16381844 19.22316618 3.98486328 20.984375 C2.99103123 30.75613149 1.94052726 40.46336501 0.125 50.125 C-0.205 50.125 -0.535 50.125 -0.875 50.125 C-0.90199725 47.85423158 -0.92139453 45.58337179 -0.9375 43.3125 C-0.94910156 42.04792969 -0.96070313 40.78335938 -0.97265625 39.48046875 C-0.875 36.125 -0.875 36.125 0.125 33.125 C0.14450654 31.37498471 0.11869008 29.62422174 0.0625 27.875 C0.00136434 23.23480324 0.8137037 19.58340743 2.125 15.125 C1.74166338 11.90388408 1.74166338 11.90388408 1.125 9.125 C1.455 8.465 1.785 7.805 2.125 7.125 C1.42375 7.186875 0.7225 7.24875 0 7.3125 C-3.52842553 7.08238529 -5.78128711 5.77498021 -8.875 4.125 C-9.535 4.125 -10.195 4.125 -10.875 4.125 C-10.875 5.775 -10.875 7.425 -10.875 9.125 C-12.195 9.455 -13.515 9.785 -14.875 10.125 C-15.205 11.775 -15.535 13.425 -15.875 15.125 C-16.535 15.125 -17.195 15.125 -17.875 15.125 C-18.205 14.465 -18.535 13.805 -18.875 13.125 C-21.4498212 14.13416823 -21.4498212 14.13416823 -23.875 16.125 C-24.77092083 19.72419423 -24.77092083 19.72419423 -24.875 23.125 C-25.865 23.125 -26.855 23.125 -27.875 23.125 C-28.535 23.455 -29.195 23.785 -29.875 24.125 C-30.14100147 26.05351068 -30.39774828 27.98422306 -30.5859375 29.921875 C-30.86597065 32.05618172 -31.35417427 33.95057969 -32 36 C-33.21736723 39.00011133 -33.21736723 39.00011133 -31.875 41.125 C-32.535 41.125 -33.195 41.125 -33.875 41.125 C-33.545 42.775 -33.215 44.425 -32.875 46.125 C-33.865 46.62 -33.865 46.62 -34.875 47.125 C-37.1096209 35.08886949 -33.23601752 23.34167265 -26.875 13.125 C-20.16233507 4.77952468 -10.69224436 -0.21820907 0 0 Z " fill="#81AAEB" transform="translate(79.875,32.875)"/>
<path d="M0 0 C0 3.4297541 -0.43060139 6.67179188 -0.875 10.07421875 C-1.00817627 11.09996758 -1.00817627 11.09996758 -1.14404297 12.1464386 C-1.42757354 14.32702977 -1.71375247 16.50726399 -2 18.6875 C-2.19288306 20.16729494 -2.38559345 21.64711241 -2.578125 23.12695312 C-3.0500812 26.75156536 -3.52441294 30.37586218 -4 34 C-6.50388957 31.49611043 -6.29727826 30.65298178 -6.3125 27.1875 C-6.21580883 20.55975952 -4.70331283 14.37728433 -3 8 C-3.99 7.67 -4.98 7.34 -6 7 C-6 5.68 -6 4.36 -6 3 C-6.66 3 -7.32 3 -8 3 C-8 5.31 -8 7.62 -8 10 C-8.66 9.67 -9.32 9.34 -10 9 C-10 7.35 -10 5.7 -10 4 C-12.31 4 -14.62 4 -17 4 C-16.67 5.65 -16.34 7.3 -16 9 C-17.051875 8.855625 -18.10375 8.71125 -19.1875 8.5625 C-22.89560369 8.5909572 -22.89560369 8.5909572 -24.5078125 10.48828125 C-25.36256438 11.7243446 -26.1811149 12.98642267 -26.95703125 14.2734375 C-28 16 -28 16 -30 18 C-31.32 18 -32.64 18 -34 18 C-34.57816112 20.23005002 -35.06687027 22.4107745 -35.4375 24.6875 C-35.623125 25.450625 -35.80875 26.21375 -36 27 C-36.66 27.33 -37.32 27.66 -38 28 C-37.65555119 30.47266765 -37.65555119 30.47266765 -37 33 C-36.34 33.33 -35.68 33.66 -35 34 C-35.99 34 -36.98 34 -38 34 C-38 34.66 -38 35.32 -38 36 C-37.34 36.33 -36.68 36.66 -36 37 C-36.99 38.32 -37.98 39.64 -39 41 C-38.01 41.33 -37.02 41.66 -36 42 C-36.45375 42.598125 -36.9075 43.19625 -37.375 43.8125 C-38.63295913 45.50590652 -39.82984724 47.24477086 -41 49 C-41.3531283 36.83669183 -40.68921889 25.93655671 -35 15 C-34.34 15 -33.68 15 -33 15 C-32.79375 14.443125 -32.5875 13.88625 -32.375 13.3125 C-28.66306442 7.06969925 -21.32322875 3.27816491 -14.75 0.75 C-9.79765016 -0.24046997 -5.03173654 -0.16378166 0 0 Z " fill="#7BB8EB" transform="translate(156,78)"/>
<path d="M0 0 C1.32 0.66 2.64 1.32 4 2 C2.88045703 8.76145028 1.65830219 13.17870581 -3.98046875 17.52734375 C-13.16845822 23.9953088 -20.81014154 25.50532638 -32 26 C-32 22.72782865 -31.73516599 20.37445544 -31 17.25 C-30.814375 16.45078125 -30.62875 15.6515625 -30.4375 14.828125 C-30.2209375 13.92320312 -30.2209375 13.92320312 -30 13 C-28.02 13.66 -26.04 14.32 -24 15 C-24 16.98 -24 18.96 -24 21 C-19.58477891 19.73025028 -19.58477891 19.73025028 -16 17 C-14.01178687 16.60235737 -12.01055661 16.26224651 -10 16 C-10.33 13.69 -10.66 11.38 -11 9 C-9.35 9.66 -7.7 10.32 -6 11 C-6 14 -6 14 -7 16 C-4.89584109 14.31377147 -4.89584109 14.31377147 -3 12 C-2.95936168 10.33382885 -2.957279 8.66611905 -3 7 C-2.0206121 5.97980427 -1.02104551 4.97850195 0 4 C0 2.68 0 1.36 0 0 Z M-29 8 C-28.67 8 -28.34 8 -28 8 C-28 9.65 -28 11.3 -28 13 C-28.33 13 -28.66 13 -29 13 C-29 11.35 -29 9.7 -29 8 Z " fill="#ED22AD" transform="translate(139,169)"/>
<path d="M0 0 C0.33 0 0.66 0 1 0 C1.1905363 6.85930689 0.44181902 13.45265947 -0.4375 20.25 C-1.48899425 28.49089752 -2.37647564 36.71483881 -3 45 C-3.99 45 -4.98 45 -6 45 C-9.67320619 36.06870171 -13.1204971 27.67453191 -14 18 C-13.443125 18.268125 -12.88625 18.53625 -12.3125 18.8125 C-11.1678125 18.9053125 -11.1678125 18.9053125 -10 19 C-7.22877725 16.64573501 -7.22877725 16.64573501 -5 14 C-4.34 14.66 -3.68 15.32 -3 16 C-2.01 10.72 -1.02 5.44 0 0 Z " fill="#6A34CE" transform="translate(111,146)"/>
<path d="M0 0 C0.33 0 0.66 0 1 0 C0.54484623 14.31458611 -2.72242788 25.21054086 -13.1875 35.25 C-19.10502631 40.06537064 -27.43933153 42.7035032 -35 43 C-38.4375 42.0625 -38.4375 42.0625 -41 41 C-40.01 40.505 -40.01 40.505 -39 40 C-39.02320313 39.18917969 -39.04640625 38.37835938 -39.0703125 37.54296875 C-39.19154029 30.10477802 -38.62918925 23.25861997 -37 16 C-35 18 -35 18 -34.734375 21.15234375 C-34.73953125 22.40144531 -34.7446875 23.65054688 -34.75 24.9375 C-34.74226562 26.80728516 -34.74226562 26.80728516 -34.734375 28.71484375 C-35 32 -35 32 -37 35 C-37.38499891 36.65549531 -37.72793135 38.3222433 -38 40 C-32.00719983 39.11562561 -27.44174848 38.44174848 -23 34 C-22.34 33.34 -21.68 32.68 -21 32 C-17.875 32.375 -17.875 32.375 -15 33 C-15 32.01 -15 31.02 -15 30 C-14.34 29.34 -13.68 28.68 -13 28 C-13 27.01 -13 26.02 -13 25 C-9.535 24.505 -9.535 24.505 -6 24 C-4.99782936 20.41672247 -4.99782936 20.41672247 -6 17 C-5.18025458 14.60382107 -4.22333884 12.40480165 -3 10.1875 C-1.49901612 6.90409776 -0.81977848 3.51333636 0 0 Z " fill="#82B0E3" transform="translate(223,152)"/>
<path d="M0 0 C2.68117871 4.02176807 4.02786649 8.27105736 5.625 12.8125 C5.94984375 13.70259766 6.2746875 14.59269531 6.609375 15.50976562 C8.24534976 20.1461731 9.44567477 24.00679194 9 29 C8.34 29 7.68 29 7 29 C6.67 29.66 6.34 30.32 6 31 C5.401875 30.773125 4.80375 30.54625 4.1875 30.3125 C3.465625 30.209375 2.74375 30.10625 2 30 C0.22809091 31.35444301 0.22809091 31.35444301 -1 33 C-1.66 32.67 -2.32 32.34 -3 32 C-2.67 34.31 -2.34 36.62 -2 39 C-2.66 39 -3.32 39 -4 39 C-4.33 39.99 -4.66 40.98 -5 42 C-4.42020498 31.65523615 -3.4808878 21.38909939 -2.25 11.10205078 C-2.07645996 9.6428909 -1.91031386 8.18284014 -1.75 6.72216797 C-1.1108461 1.1108461 -1.1108461 1.1108461 0 0 Z " fill="#4C3ADE" transform="translate(86,35)"/>
<path d="M0 0 C4.36775158 3.14884416 7.96773395 6.77820184 9.6875 11.9375 C9.75687062 14.16568441 9.77207084 16.39584524 9.75 18.625 C9.74097656 19.80449219 9.73195312 20.98398438 9.72265625 22.19921875 C9.71105469 23.10285156 9.69945312 24.00648438 9.6875 24.9375 C9.3575 24.9375 9.0275 24.9375 8.6875 24.9375 C8.48833984 23.56464844 8.48833984 23.56464844 8.28515625 22.1640625 C8.10855469 20.97554687 7.93195313 19.78703125 7.75 18.5625 C7.57597656 17.37914062 7.40195313 16.19578125 7.22265625 14.9765625 C6.85287214 12.03047619 6.85287214 12.03047619 5.6875 9.9375 C4.6975 10.4325 4.6975 10.4325 3.6875 10.9375 C3.3575 10.2775 3.0275 9.6175 2.6875 8.9375 C1.0375 9.2675 -0.6125 9.5975 -2.3125 9.9375 C-2.6425 8.9475 -2.9725 7.9575 -3.3125 6.9375 C-3.9725 6.6075 -4.6325 6.2775 -5.3125 5.9375 C-5.3125 5.2775 -5.3125 4.6175 -5.3125 3.9375 C-6.6325 3.9375 -7.9525 3.9375 -9.3125 3.9375 C-9.6425 4.5975 -9.9725 5.2575 -10.3125 5.9375 C-10.9725 5.9375 -11.6325 5.9375 -12.3125 5.9375 C-12.6425 6.5975 -12.9725 7.2575 -13.3125 7.9375 C-14.6325 7.9375 -15.9525 7.9375 -17.3125 7.9375 C-17.6425 8.9275 -17.9725 9.9175 -18.3125 10.9375 C-21.875 12.625 -21.875 12.625 -25.3125 13.9375 C-24.2030612 5.15763089 -24.2030612 5.15763089 -20.375 1.9375 C-14.20848077 -2.0896146 -6.94265875 -2.22689054 0 0 Z " fill="#D040AC" transform="translate(216.3125,116.0625)"/>
<path d="M0 0 C3.60654972 1.20218324 3.77805333 1.89054842 5.48046875 5.1484375 C5.92197266 5.98890625 6.36347656 6.829375 6.81835938 7.6953125 C7.27017578 8.57960938 7.72199219 9.46390625 8.1875 10.375 C8.65091797 11.2515625 9.11433594 12.128125 9.59179688 13.03125 C13 19.596684 13 19.596684 13 23 C11.02 23.33 9.04 23.66 7 24 C7 23.01 7 22.02 7 21 C3.88214887 21.64644661 3.88214887 21.64644661 3 24 C1.68 24 0.36 24 -1 24 C-1.33 24.66 -1.66 25.32 -2 26 C-2.33165588 17.137418 -1.3213258 8.7419859 0 0 Z " fill="#4D37E3" transform="translate(155,80)"/>
<path d="M0 0 C1.0625 1.8125 1.0625 1.8125 2 4 C1.67 4.99 1.34 5.98 1 7 C1.66 7 2.32 7 3 7 C3 8.65 3 10.3 3 12 C2.34 12 1.68 12 1 12 C-0.32758563 18.96982457 -0.07995299 25.92860242 0 33 C0 33.99 0 34.98 0 36 C-0.495 36.495 -0.495 36.495 -1 37 C-0.01 37.33 0.98 37.66 2 38 C2.25 43.625 2.25 43.625 0 47 C0.99 47.33 1.98 47.66 3 48 C4.1875 50.5625 4.1875 50.5625 5 53 C2.5623375 52.62057705 1.29089067 52.30029954 -0.44921875 50.50390625 C-3.85036061 45.17151664 -5.16535314 40.35428485 -5 34 C-4.67 33.34 -4.34 32.68 -4 32 C-3.80216988 30.28304564 -3.65536558 28.5600659 -3.53515625 26.8359375 C-3.45716797 25.79566406 -3.37917969 24.75539062 -3.29882812 23.68359375 C-3.1429614 21.50145958 -2.98926685 19.31916902 -2.83789062 17.13671875 C-2.38877103 11.19957678 -1.65600494 5.72326394 0 0 Z " fill="#C943A6" transform="translate(38,139)"/>
<path d="M0 0 C2.375 0.3125 2.375 0.3125 5 1 C7.14965431 4.22448147 7.22152284 4.79930965 6.9765625 8.44921875 C6.925 9.29677734 6.8734375 10.14433594 6.8203125 11.01757812 C6.75585938 11.89865234 6.69140625 12.77972656 6.625 13.6875 C6.56828125 14.58017578 6.5115625 15.47285156 6.453125 16.39257812 C6.31173702 18.59587413 6.16034022 20.79801539 6 23 C5.01 23 4.02 23 3 23 C2.54625 21.88625 2.0925 20.7725 1.625 19.625 C0.27534014 16.03800992 0.27534014 16.03800992 -2 14 C-3.14905588 9.60248538 -3.51095157 6.08854899 -1.5625 1.9375 C-1.046875 1.298125 -0.53125 0.65875 0 0 Z " fill="#4E3BDC" transform="translate(178,169)"/>
<path d="M0 0 C1.32 0.66 2.64 1.32 4 2 C2.87497341 8.7945685 1.64450174 13.22323677 -4.05078125 17.5625 C-8.20358653 20.46597395 -12.03868097 22.72786691 -17 24 C-15.35 22.02 -13.7 20.04 -12 18 C-12.33 17.34 -12.66 16.68 -13 16 C-12.01 16 -11.02 16 -10 16 C-10.33 13.69 -10.66 11.38 -11 9 C-8.525 9.99 -8.525 9.99 -6 11 C-6 14 -6 14 -7 16 C-4.89584109 14.31377147 -4.89584109 14.31377147 -3 12 C-2.95936168 10.33382885 -2.957279 8.66611905 -3 7 C-2.0206121 5.97980427 -1.02104551 4.97850195 0 4 C0 2.68 0 1.36 0 0 Z " fill="#DA37AB" transform="translate(139,169)"/>
<path d="M0 0 C0.66 0.99 1.32 1.98 2 3 C1.030625 3.12375 0.06125 3.2475 -0.9375 3.375 C-2.4534375 3.684375 -2.4534375 3.684375 -4 4 C-4.33 4.66 -4.66 5.32 -5 6 C-5.66 6 -6.32 6 -7 6 C-7.33 6.66 -7.66 7.32 -8 8 C-9.32 8 -10.64 8 -12 8 C-12.33 8.99 -12.66 9.98 -13 11 C-16.5625 12.6875 -16.5625 12.6875 -20 14 C-19.71758359 12.53984709 -19.42373386 11.08190207 -19.125 9.625 C-18.96257812 8.81289062 -18.80015625 8.00078125 -18.6328125 7.1640625 C-18 5 -18 5 -16 3 C-13.68152126 2.2833793 -11.34680297 1.61757973 -9 1 C-5.73842267 -0.08719244 -3.41589896 -0.29071481 0 0 Z " fill="#F120AB" transform="translate(211,116)"/>
<path d="M0 0 C2 1.0625 2 1.0625 4 3 C4.46369995 7.25058287 4.33012265 10.35918336 2 14 C0.68 13.34 -0.64 12.68 -2 12 C-2.33 12.66 -2.66 13.32 -3 14 C-4.5 12.75 -4.5 12.75 -6 11 C-6 9.68 -6 8.36 -6 7 C-6.66 7 -7.32 7 -8 7 C-8 6.01 -8 5.02 -8 4 C-6.68 4.33 -5.36 4.66 -4 5 C-2.68 3.35 -1.36 1.7 0 0 Z " fill="#4C37E0" transform="translate(105,160)"/>
<path d="M0 0 C0.66 0 1.32 0 2 0 C1.7834375 1.2684375 1.7834375 1.2684375 1.5625 2.5625 C0.9941203 6.03593149 0.48797607 9.51445662 0 13 C-0.99 13 -1.98 13 -3 13 C-3.99 13.495 -3.99 13.495 -5 14 C-5.26600147 15.92851068 -5.52274828 17.85922306 -5.7109375 19.796875 C-5.99097065 21.93118172 -6.47917427 23.82557969 -7.125 25.875 C-8.34236723 28.87511133 -8.34236723 28.87511133 -7 31 C-7.66 31 -8.32 31 -9 31 C-8.67 32.65 -8.34 34.3 -8 36 C-8.99 36.495 -8.99 36.495 -10 37 C-12.49184585 23.5784027 -7.37094725 11.05642088 0 0 Z " fill="#80B1E4" transform="translate(55,43)"/>
<path d="M0 0 C0.66 0 1.32 0 2 0 C1.47332839 5.37174381 0.94003624 10.74277623 0.40087891 16.11328125 C0.21876572 17.93634703 0.03839145 19.75958747 -0.14013672 21.58300781 C-2.1217342 41.79751618 -2.1217342 41.79751618 -4 49 C-4.99 49.495 -4.99 49.495 -6 50 C-5.83757812 49.32324219 -5.67515625 48.64648438 -5.5078125 47.94921875 C-4.91835643 44.52583927 -4.86768092 41.28540408 -4.875 37.8125 C-4.87113281 35.96591797 -4.87113281 35.96591797 -4.8671875 34.08203125 C-4.78611051 31.08753603 -4.78611051 31.08753603 -6 29 C-5.67 28.34 -5.34 27.68 -5 27 C-4.34 27 -3.68 27 -3 27 C-3.02320312 26.23816406 -3.04640625 25.47632813 -3.0703125 24.69140625 C-3.18551443 18.10020983 -2.64327207 12.35983924 -1 6 C-0.64963394 4.00291344 -0.30830925 2.00401011 0 0 Z " fill="#B45AAC" transform="translate(73,136)"/>
<path d="M0 0 C3.82824434 3.50302772 5.80743038 7.89126144 8.1875 12.4375 C8.65091797 13.29666016 9.11433594 14.15582031 9.59179688 15.04101562 C10.02943359 15.87181641 10.46707031 16.70261719 10.91796875 17.55859375 C11.31781982 18.31454834 11.7176709 19.07050293 12.12963867 19.84936523 C13 22 13 22 13 26 C12.34 26 11.68 26 11 26 C10.67 24.02 10.34 22.04 10 20 C8.68 20.33 7.36 20.66 6 21 C5.67 18.69 5.34 16.38 5 14 C4.01 14.33 3.02 14.66 2 15 C1.7834375 13.2365625 1.7834375 13.2365625 1.5625 11.4375 C1.08589824 7.61787728 0.55546456 3.80889981 0 0 Z " fill="#3F4CA4" transform="translate(175,115)"/>
<path d="M0 0 C0.66 0 1.32 0 2 0 C1.690625 1.051875 1.38125 2.10375 1.0625 3.1875 C-0.01754517 6.81862941 -0.01754517 6.81862941 -0.5 9.875 C-0.665 10.57625 -0.83 11.2775 -1 12 C-1.99 12.495 -1.99 12.495 -3 13 C-2.65555119 15.47266765 -2.65555119 15.47266765 -2 18 C-1.34 18.33 -0.68 18.66 0 19 C-0.99 19 -1.98 19 -3 19 C-3 19.66 -3 20.32 -3 21 C-2.34 21.33 -1.68 21.66 -1 22 C-1.99 23.32 -2.98 24.64 -4 26 C-3.01 26.33 -2.02 26.66 -1 27 C-1.45375 27.598125 -1.9075 28.19625 -2.375 28.8125 C-3.63295913 30.50590652 -4.82984724 32.24477086 -6 34 C-6.3531283 21.83669183 -5.68921889 10.93655671 0 0 Z " fill="#8D9BDA" transform="translate(121,93)"/>
<path d="M0 0 C0.99 0.33 1.98 0.66 3 1 C1.67 24.66 1.67 24.66 -3 34 C-4.25556424 30.09380015 -3.81588958 27.63177916 -2 24 C-1.79459652 21.85752762 -1.63410745 19.71061398 -1.5 17.5625 C-1.28369698 14.10551422 -1.09651096 11.28953289 0 8 C-0.32205743 5.66508361 -0.65458149 3.33157492 -1 1 C-0.67 0.67 -0.34 0.34 0 0 Z " fill="#B35EB8" transform="translate(146,143)"/>
<path d="M0 0 C0.33 1.65 0.66 3.3 1 5 C-0.32 5.33 -1.64 5.66 -3 6 C-3.33 7.65 -3.66 9.3 -4 11 C-4.66 11 -5.32 11 -6 11 C-6.33 10.34 -6.66 9.68 -7 9 C-8.65 9.66 -10.3 10.32 -12 11 C-12 7.33815476 -11.080358 5.97194 -9 3 C-6.02337911 0.12259981 -4.10147025 -0.34178919 0 0 Z " fill="#77B9ED" transform="translate(68,37)"/>
<path d="M0 0 C1.0625 1.8125 1.0625 1.8125 2 4 C1.67 4.99 1.34 5.98 1 7 C1.66 7 2.32 7 3 7 C3 8.65 3 10.3 3 12 C2.34 12 1.68 12 1 12 C0.87625 12.969375 0.7525 13.93875 0.625 14.9375 C0.00136191 19.34815777 -0.98746506 23.66477759 -2 28 C-2.33 28 -2.66 28 -3 28 C-2.88869202 24.83269988 -2.7584174 21.66643974 -2.625 18.5 C-2.5940625 17.613125 -2.563125 16.72625 -2.53125 15.8125 C-2.28680022 10.27163824 -1.53261755 5.33301067 0 0 Z " fill="#BB58AE" transform="translate(38,139)"/>
<path d="M0 0 C0.66 0.33 1.32 0.66 2 1 C2 1.99 2 2.98 2 4 C6.41522109 2.73025028 6.41522109 2.73025028 10 0 C12.625 0.375 12.625 0.375 15 1 C9 7 9 7 5.4375 7.0625 C4.303125 7.041875 3.16875 7.02125 2 7 C2 6.34 2 5.68 2 5 C0.02 5.33 -1.96 5.66 -4 6 C-3.67 4.68 -3.34 3.36 -3 2 C-1.515 2.99 -1.515 2.99 0 4 C0 2.68 0 1.36 0 0 Z " fill="#F41AA5" transform="translate(113,186)"/>
<path d="M0 0 C2 2 2 2 2.265625 5.15234375 C2.26046875 6.40144531 2.2553125 7.65054688 2.25 8.9375 C2.25773438 10.80728516 2.25773438 10.80728516 2.265625 12.71484375 C2 16 2 16 0 19 C-0.38499891 20.65549531 -0.72793135 22.3222433 -1 24 C-0.34 24 0.32 24 1 24 C1 24.66 1 25.32 1 26 C-0.65 25.67 -2.3 25.34 -4 25 C-3.34 24.67 -2.68 24.34 -2 24 C-2.02320313 23.18917969 -2.04640625 22.37835938 -2.0703125 21.54296875 C-2.19154029 14.10477802 -1.62918925 7.25861997 0 0 Z " fill="#788EED" transform="translate(186,168)"/>
<path d="M0 0 C2.475 0.99 2.475 0.99 5 2 C5 7.9375 5 7.9375 4 11 C1.5258628 12.82705516 -1.04984128 14.12520856 -4 15 C-4.66 14.67 -5.32 14.34 -6 14 C-4.35 12.35 -2.7 10.7 -1 9 C-1.33 8.34 -1.66 7.68 -2 7 C-1.01 7 -0.02 7 1 7 C0.67 4.69 0.34 2.38 0 0 Z " fill="#ED23A9" transform="translate(128,178)"/>
<path d="M0 0 C0 0.99 0 1.98 0 3 C-5.29785061 7.94466057 -8.75416928 9.2251903 -15.76953125 9.16796875 C-18.46790666 8.9647636 -20.60098569 8.23820093 -23 7 C-19.58860997 5.90348177 -16.79344419 6.05784527 -13.25 6.4375 C-12.26515625 6.53933594 -11.2803125 6.64117187 -10.265625 6.74609375 C-9.14414062 6.87177734 -9.14414062 6.87177734 -8 7 C-7.566875 6.071875 -7.566875 6.071875 -7.125 5.125 C-6 3 -6 3 -4 1 C-1.875 0.375 -1.875 0.375 0 0 Z " fill="#D53BA4" transform="translate(66,186)"/>
<path d="M0 0 C0.66 0 1.32 0 2 0 C2.33 1.98 2.66 3.96 3 6 C6.465 5.505 6.465 5.505 10 5 C10.33 6.32 10.66 7.64 11 9 C9.68 9.33 8.36 9.66 7 10 C7.33 13.63 7.66 17.26 8 21 C5.60532877 17.80710503 4.55777916 16.30928694 3.4375 12.75 C3.19257812 11.97269531 2.94765625 11.19539062 2.6953125 10.39453125 C1.69513566 6.95010203 0.82503303 3.49052434 0 0 Z " fill="#593FD6" transform="translate(97,167)"/>
<path d="M0 0 C0.99 0.495 0.99 0.495 2 1 C2 1.99 2 2.98 2 4 C3.32 4.66 4.64 5.32 6 6 C5.67 7.32 5.34 8.64 5 10 C5.66 10 6.32 10 7 10 C6.95875 10.886875 6.9175 11.77375 6.875 12.6875 C7.00055421 16.01468647 7.72655281 17.97556293 9 21 C9 22.32 9 23.64 9 25 C7 24 7 24 6.2890625 22.1015625 C6.06992188 21.28429687 5.85078125 20.46703125 5.625 19.625 C4.25856214 14.75487531 2.58289706 10.06784065 0.76953125 5.34765625 C0 3 0 3 0 0 Z " fill="#4D51A5" transform="translate(79,115)"/>
<path d="M0 0 C1.98 0.495 1.98 0.495 4 1 C4.05410687 2.77049689 4.09284119 4.54146849 4.125 6.3125 C4.14820312 7.29863281 4.17140625 8.28476563 4.1953125 9.30078125 C4 12 4 12 2 15 C2 14.34 2 13.68 2 13 C1.01 12.67 0.02 12.34 -1 12 C-1.08047959 8.4588979 -0.97311528 5.40590348 0 2 C0 1.34 0 0.68 0 0 Z " fill="#EA29AB" transform="translate(65,169)"/>
<path d="M0 0 C0.66 0 1.32 0 2 0 C3.23076923 5.41538462 3.23076923 5.41538462 2.0625 8.375 C1.711875 8.91125 1.36125 9.4475 1 10 C1.99 10.33 2.98 10.66 4 11 C3.01 11.66 2.02 12.32 1 13 C0.19907746 15.64691668 0.19907746 15.64691668 -0.1875 18.625 C-0.42533203 20.12933594 -0.42533203 20.12933594 -0.66796875 21.6640625 C-0.77753906 22.43492188 -0.88710938 23.20578125 -1 24 C-3 22 -3 22 -3.046875 19.0234375 C-2.51423151 12.47752932 -1.88983352 6.29944507 0 0 Z " fill="#968FCD" transform="translate(44,81)"/>
<path d="M0 0 C0.33 0 0.66 0 1 0 C0.4340092 11.06660956 -0.59883036 22.00830029 -2 33 C-4.50388957 30.49611043 -4.29727826 29.65298178 -4.3125 26.1875 C-4.22368988 20.55545795 -3.10997304 15.41665039 -1.734375 9.97265625 C-0.91278555 6.64696702 -0.39515132 3.39830138 0 0 Z " fill="#7F93F1" transform="translate(154,79)"/>
<path d="M0 0 C2.73166874 2.73166874 2.68363494 4.92054215 3.046875 8.66796875 C2.98020875 11.98461463 1.7656009 14.2456626 0 17 C-0.33 17 -0.66 17 -1 17 C-1.22262606 14.91814549 -1.42757926 12.83439574 -1.625 10.75 C-1.74101563 9.58984375 -1.85703125 8.4296875 -1.9765625 7.234375 C-1.99955595 4.06127909 -1.69705154 2.61682756 0 0 Z " fill="#5133EE" transform="translate(86,40)"/>
<path d="M0 0 C1.21236328 0.01353516 1.21236328 0.01353516 2.44921875 0.02734375 C3.37154297 0.04474609 3.37154297 0.04474609 4.3125 0.0625 C3.9825 2.0425 3.6525 4.0225 3.3125 6.0625 C-1.13620215 6.45503254 -3.82993493 5.21555957 -7.6875 3.0625 C-7.6875 2.4025 -7.6875 1.7425 -7.6875 1.0625 C-4.80538698 0.10179566 -2.98899956 -0.04331883 0 0 Z " fill="#70C0F6" transform="translate(78.6875,33.9375)"/>
<path d="M0 0 C2.33285378 2.13900633 3.7868759 4.16655353 5.1875 7 C5.53167969 7.680625 5.87585938 8.36125 6.23046875 9.0625 C7 11 7 11 7 14 C5.02 14.33 3.04 14.66 1 15 C1.33 11.7 1.66 8.4 2 5 C1.34 5 0.68 5 0 5 C0 3.35 0 1.7 0 0 Z " fill="#5143CC" transform="translate(161,89)"/>
<path d="M0 0 C0 2.31 0 4.62 0 7 C-1.32 6.67 -2.64 6.34 -4 6 C-4 4.68 -4 3.36 -4 2 C-4.66 2 -5.32 2 -6 2 C-6 4.31 -6 6.62 -6 9 C-6.66 8.67 -7.32 8.34 -8 8 C-8 6.35 -8 4.7 -8 3 C-8.99 2.67 -9.98 2.34 -11 2 C-7.17010894 0.19769832 -4.21878192 -0.19622241 0 0 Z " fill="#70BFF7" transform="translate(154,79)"/>
<path d="M0 0 C3.76607955 1.25535985 4.26441793 2.52883585 6 6 C6 6.99 6 7.98 6 9 C4 9 4 9 2.375 7.5 C1.92125 7.005 1.4675 6.51 1 6 C1.04125 6.99 1.0825 7.98 1.125 9 C1.1423348 13.23835866 0.14191162 16.93193985 -1 21 C-1.33 21 -1.66 21 -2 21 C-1.03644647 6.21867882 -1.03644647 6.21867882 0 0 Z " fill="#5245D5" transform="translate(155,80)"/>
<path d="M0 0 C1.01534595 3.3603116 1.13383137 6.43586286 1.125 9.9375 C1.12757813 10.95714844 1.13015625 11.97679687 1.1328125 13.02734375 C1.00866912 15.80596475 0.62103979 18.2950267 0 21 C-0.185625 21.928125 -0.37125 22.85625 -0.5625 23.8125 C-0.706875 24.534375 -0.85125 25.25625 -1 26 C-1.33 26 -1.66 26 -2 26 C-3.39325815 17.82872925 -3.79112531 7.58225062 0 0 Z " fill="#BB54B5" transform="translate(191,124)"/>
<path d="M0 0 C0.33 0 0.66 0 1 0 C0.22095672 13.6332574 0.22095672 13.6332574 -2 20 C-2.33 19.34 -2.66 18.68 -3 18 C-3.99 18.33 -4.98 18.66 -6 19 C-4.24120603 12.46733668 -4.24120603 12.46733668 -3 10.0625 C-1.44179696 6.84870623 -0.81044706 3.47334456 0 0 Z " fill="#939CD8" transform="translate(223,152)"/>
<path d="M0 0 C0.66 0.66 1.32 1.32 2 2 C1.1875 3.9375 1.1875 3.9375 0 6 C-0.99 6.33 -1.98 6.66 -3 7 C-3.33 7.66 -3.66 8.32 -4 9 C-5.32 9 -6.64 9 -8 9 C-8.33 9.66 -8.66 10.32 -9 11 C-8.67 8.03 -8.34 5.06 -8 2 C-7.34 2 -6.68 2 -6 2 C-5.67 2.66 -5.34 3.32 -5 4 C-1.87802522 2.6910428 -1.87802522 2.6910428 0 0 Z " fill="#4A39DC" transform="translate(162,95)"/>
<path d="M0 0 C0.33 0 0.66 0 1 0 C1.4375 18.22916667 1.4375 18.22916667 -1 25 C-1.66 25.33 -2.32 25.66 -3 26 C-2.83757812 25.32324219 -2.67515625 24.64648438 -2.5078125 23.94921875 C-1.91835643 20.52583927 -1.86768092 17.28540408 -1.875 13.8125 C-1.87113281 11.96591797 -1.87113281 11.96591797 -1.8671875 10.08203125 C-1.78611051 7.08753603 -1.78611051 7.08753603 -3 5 C-2.67 4.34 -2.34 3.68 -2 3 C-1.34 3 -0.68 3 0 3 C0 2.01 0 1.02 0 0 Z " fill="#C74AAA" transform="translate(70,160)"/>
<path d="M0 0 C0.66 0 1.32 0 2 0 C4.57148749 7.71446248 0.87857472 18.2173333 -1 26 C-1.33 26 -1.66 26 -2 26 C-1.39702691 17.32745081 -0.74558682 8.66149795 0 0 Z " fill="#B83ACC" transform="translate(110,160)"/>
<path d="M0 0 C1.9375 0.5625 1.9375 0.5625 4 2 C4.9375 5.375 4.9375 5.375 5 9 C3.5625 11.4375 3.5625 11.4375 2 13 C0.24252386 8.49646738 -0.19294408 4.82360189 0 0 Z " fill="#4440C4" transform="translate(96,75)"/>
<path d="M0 0 C2.71456107 4.07184161 4.07159223 8.40162518 5.6875 13 C6.02072266 13.91523437 6.35394531 14.83046875 6.69726562 15.7734375 C7.00728516 16.65257813 7.31730469 17.53171875 7.63671875 18.4375 C7.92248779 19.24058594 8.20825684 20.04367188 8.50268555 20.87109375 C9 23 9 23 8 26 C4.891397 20.31671436 2.48498407 15.14237289 1.45703125 8.71484375 C1.30621094 8.14894531 1.15539062 7.58304688 1 7 C0.34 6.67 -0.32 6.34 -1 6 C-1.042721 4.33388095 -1.04063832 2.66617115 -1 1 C-0.67 0.67 -0.34 0.34 0 0 Z " fill="#5E4EBE" transform="translate(86,35)"/>
<path d="M0 0 C0 0.99 0 1.98 0 3 C-0.33 2.67 -0.66 2.34 -1 2 C-6.84947405 1.3641876 -11.06768387 2.96195489 -16.44921875 5.22265625 C-19.1635079 6.04982859 -20.38171381 5.97495903 -23 5 C-15.58885379 0.05923586 -8.63943949 -0.28121141 0 0 Z " fill="#84ACDB" transform="translate(156,78)"/>
<path d="M0 0 C0.99 0.33 1.98 0.66 3 1 C-2.98410537 3.32655091 -8.58008874 5.42934122 -15 6 C-15 4.68 -15 3.36 -15 2 C-14.08476562 1.93941406 -13.16953125 1.87882813 -12.2265625 1.81640625 C-10.44378906 1.69072266 -10.44378906 1.69072266 -8.625 1.5625 C-7.44164062 1.48128906 -6.25828125 1.40007812 -5.0390625 1.31640625 C-2.08481099 1.18915064 -2.08481099 1.18915064 0 0 Z " fill="#80ACE3" transform="translate(203,189)"/>
<path d="M0 0 C2.015625 1.17578125 2.015625 1.17578125 4 3 C4.171875 5.48046875 4.171875 5.48046875 3.75 8.1875 C3.62109375 9.08855469 3.4921875 9.98960937 3.359375 10.91796875 C3.24078125 11.60503906 3.1221875 12.29210937 3 13 C2.01 12.67 1.02 12.34 0 12 C-0.33 11.01 -0.66 10.02 -1 9 C-0.34 9 0.32 9 1 9 C0.01 7.02 -0.98 5.04 -2 3 C-1.34 2.01 -0.68 1.02 0 0 Z " fill="#5035EC" transform="translate(179,173)"/>
<path d="M0 0 C2.475 0.99 2.475 0.99 5 2 C5 2.99 5 3.98 5 5 C1.17010894 6.80230168 -1.78121808 7.19622241 -6 7 C-4.02 4.69 -2.04 2.38 0 0 Z " fill="#73BBF1" transform="translate(201,184)"/>
<path d="M0 0 C0.66 0 1.32 0 2 0 C2.25 5.625 2.25 5.625 0 9 C0.99 9.33 1.98 9.66 3 10 C4.1875 12.5625 4.1875 12.5625 5 15 C2.13280816 14.70339395 1.12292481 14.1311198 -0.875 12 C-2.50491639 7.65355629 -1.31286586 4.33529086 0 0 Z " fill="#D142A6" transform="translate(38,177)"/>
<path d="M0 0 C1.5 1.3125 1.5 1.3125 3 3 C3 3.99 3 4.98 3 6 C3.66 6.33 4.32 6.66 5 7 C5.625 9.0625 5.625 9.0625 6 11 C4.02 11.99 4.02 11.99 2 13 C1.47044766 11.21089097 0.9516063 9.41860852 0.4375 7.625 C0.14746094 6.62726563 -0.14257812 5.62953125 -0.44140625 4.6015625 C-1 2 -1 2 0 0 Z " fill="#4440C6" transform="translate(91,140)"/>
<path d="M0 0 C0 0.66 0 1.32 0 2 C0.66 2.33 1.32 2.66 2 3 C1.01 4.485 1.01 4.485 0 6 C0.99 6 1.98 6 3 6 C2.6875 7.9375 2.6875 7.9375 2 10 C1.01 10.33 0.02 10.66 -1 11 C-1.33 9.02 -1.66 7.04 -2 5 C-2.66 5 -3.32 5 -4 5 C-4.33 3.68 -4.66 2.36 -5 1 C-2 0 -2 0 0 0 Z M-2 3 C-1 5 -1 5 -1 5 Z " fill="#463DCE" transform="translate(173,161)"/>
<path d="M0 0 C0.33 0 0.66 0 1 0 C0.50610812 8.78607656 -0.36822681 17.35001785 -2 26 C-2.33 26 -2.66 26 -3 26 C-3.02699725 23.72923158 -3.04639453 21.45837179 -3.0625 19.1875 C-3.07990234 17.29064453 -3.07990234 17.29064453 -3.09765625 15.35546875 C-3 12 -3 12 -2 9 C-1.63109697 7.44091346 -1.27784121 5.87806959 -0.9375 4.3125 C-0.76089844 3.50425781 -0.58429688 2.69601563 -0.40234375 1.86328125 C-0.26957031 1.24839844 -0.13679688 0.63351563 0 0 Z " fill="#7F88ED" transform="translate(82,57)"/>
<path d="M0 0 C0.99 0 1.98 0 3 0 C3.05395478 1.62463842 3.09277195 3.24978541 3.125 4.875 C3.14820312 5.77992188 3.17140625 6.68484375 3.1953125 7.6171875 C3 10 3 10 1 12 C-0.41404314 8.19975907 -1.34892324 5.07077118 -1 1 C-0.67 0.67 -0.34 0.34 0 0 Z " fill="#5233EF" transform="translate(104,176)"/>
<path d="M0 0 C0.66 0 1.32 0 2 0 C2.53699151 7.11513755 0.69707634 12.44995746 -2 19 C-3.11510202 15.02224803 -2.85389472 12.70778945 -1 9 C-0.77532169 7.46331135 -0.59203195 5.92031946 -0.4375 4.375 C-0.35371094 3.55773437 -0.26992187 2.74046875 -0.18359375 1.8984375 C-0.12300781 1.27195313 -0.06242188 0.64546875 0 0 Z " fill="#C151AD" transform="translate(145,158)"/>
<path d="M0 0 C0.66 0.99 1.32 1.98 2 3 C1.030625 3.12375 0.06125 3.2475 -0.9375 3.375 C-1.948125 3.58125 -2.95875 3.7875 -4 4 C-4.33 4.66 -4.66 5.32 -5 6 C-5 5.01 -5 4.02 -5 3 C-5.99 3.33 -6.98 3.66 -8 4 C-8.33 3.01 -8.66 2.02 -9 1 C-5.73842267 -0.08719244 -3.41589896 -0.29071481 0 0 Z " fill="#F11CA7" transform="translate(211,116)"/>
<path d="M0 0 C2.80515429 1.40257715 3.03174952 3.38110199 4.00195312 6.22460938 C4.34129883 7.25811523 4.34129883 7.25811523 4.6875 8.3125 C4.92533203 8.98990234 5.16316406 9.66730469 5.40820312 10.36523438 C7.46696479 16.54151937 7.46696479 16.54151937 6 20 C4.460779 16.11848616 3.11245542 12.68722756 2.4375 8.5625 C2.293125 7.716875 2.14875 6.87125 2 6 C1.34 5.67 0.68 5.34 0 5 C-0.6875 3 -0.6875 3 -1 1 C-0.67 0.67 -0.34 0.34 0 0 Z " fill="#6055AD" transform="translate(88,140)"/>
<path d="M0 0 C0.66 0 1.32 0 2 0 C2 0.66 2 1.32 2 2 C2.66 2.33 3.32 2.66 4 3 C5.02178143 4.72425617 6.04130093 6.45082593 7 8.2109375 C7.91907273 9.85521605 8.95510816 11.43266224 10 13 C9.01 13.66 8.02 14.32 7 15 C7 14.01 7 13.02 7 12 C6.34 12 5.68 12 5 12 C4.16180842 10.37750059 3.3295884 8.75191503 2.5 7.125 C2.0359375 6.22007812 1.571875 5.31515625 1.09375 4.3828125 C0 2 0 2 0 0 Z " fill="#5654A7" transform="translate(151,134)"/>
<path d="M0 0 C2.35716404 2.15454249 3.78966144 4.19719874 5.1875 7.0625 C5.53167969 7.75472656 5.87585938 8.44695312 6.23046875 9.16015625 C7 11 7 11 7 13 C5 13 5 13 2.9375 11.5625 C0.18918922 7.92763735 0.19041398 4.45568718 0 0 Z M1 10 C3 11 3 11 3 11 Z " fill="#5152A8" transform="translate(175,115)"/>
<path d="M0 0 C0.66 0.33 1.32 0.66 2 1 C1.835 1.763125 1.67 2.52625 1.5 3.3125 C0.90854604 6.03596236 0.90854604 6.03596236 1 9 C-0.65 9.66 -2.3 10.32 -4 11 C-3.71758359 9.53984709 -3.42373386 8.08190207 -3.125 6.625 C-2.96257812 5.81289062 -2.80015625 5.00078125 -2.6328125 4.1640625 C-2 2 -2 2 0 0 Z " fill="#D937A8" transform="translate(195,119)"/>
<path d="M0 0 C0.99 0.66 1.98 1.32 3 2 C1.87851563 1.96519531 1.87851563 1.96519531 0.734375 1.9296875 C-0.25046875 1.91164063 -1.2353125 1.89359375 -2.25 1.875 C-3.22453125 1.85179688 -4.1990625 1.82859375 -5.203125 1.8046875 C-8.05032118 2.00351405 -9.53603289 2.65994771 -12 4 C-14.25 3.625 -14.25 3.625 -16 3 C-11.28232626 -0.90428172 -5.83283991 -0.69524562 0 0 Z " fill="#D340A4" transform="translate(213,115)"/>
<path d="M0 0 C0.33 0 0.66 0 1 0 C0.98839844 0.69867188 0.97679687 1.39734375 0.96484375 2.1171875 C0.95582031 3.02726562 0.94679687 3.93734375 0.9375 4.875 C0.92589844 5.77992187 0.91429687 6.68484375 0.90234375 7.6171875 C0.83750743 10.0168585 0.83750743 10.0168585 2 12 C1.34 12 0.68 12 0 12 C0.33 13.65 0.66 15.3 1 17 C0.34 17.33 -0.32 17.66 -1 18 C-2.41117949 11.6496923 -1.3792223 6.30338787 0 0 Z " fill="#8F9CCE" transform="translate(46,62)"/>
<path d="M0 0 C0.33 0 0.66 0 1 0 C1.33 3.63 1.66 7.26 2 11 C1.01 11 0.02 11 -1 11 C-2.0625 9.1875 -2.0625 9.1875 -3 7 C-2.67 6.01 -2.34 5.02 -2 4 C-1.34 4.33 -0.68 4.66 0 5 C0 3.35 0 1.7 0 0 Z " fill="#614FD2" transform="translate(182,181)"/>
<path d="M0 0 C0.66 0 1.32 0 2 0 C1.690625 1.051875 1.38125 2.10375 1.0625 3.1875 C0.24314906 6.12752396 -0.45483931 9.00161623 -1 12 C-1.99 12.33 -2.98 12.66 -4 13 C-3.40895235 8.15340923 -2.02055843 4.39251833 0 0 Z " fill="#89A5D7" transform="translate(121,93)"/>
<path d="M0 0 C2.86336371 2.86336371 2.30016187 4.95228346 2.3125 8.9375 C2.32925781 10.18402344 2.34601563 11.43054688 2.36328125 12.71484375 C2 16 2 16 -1 19 C-0.67 12.73 -0.34 6.46 0 0 Z " fill="#8A9AEC" transform="translate(186,168)"/>
<path d="M0 0 C1.64826111 2.96687001 2.44271087 5.65626525 3 9 C2.01 9.33 1.02 9.66 0 10 C-0.33 10.66 -0.66 11.32 -1 12 C-1.02698189 10.37509046 -1.04638757 8.75005367 -1.0625 7.125 C-1.07410156 6.22007812 -1.08570313 5.31515625 -1.09765625 4.3828125 C-1 2 -1 2 0 0 Z " fill="#DC39B1" transform="translate(36,165)"/>
<path d="M0 0 C0.99 0.33 1.98 0.66 3 1 C3.33 2.65 3.66 4.3 4 6 C2.35 7.32 0.7 8.64 -1 10 C-0.67 6.7 -0.34 3.4 0 0 Z " fill="#5132EF" transform="translate(156,86)"/>
<path d="M0 0 C1.65 1.65 3.3 3.3 5 5 C4.01 5.66 3.02 6.32 2 7 C1.67 6.34 1.34 5.68 1 5 C-0.65 5.33 -2.3 5.66 -4 6 C-4 5.34 -4 4.68 -4 4 C-3.34 4 -2.68 4 -2 4 C-2 3.34 -2 2.68 -2 2 C-1.34 2 -0.68 2 0 2 C0 1.34 0 0.68 0 0 Z " fill="#DD33AE" transform="translate(218,120)"/>
<path d="M0 0 C1.32 1.32 2.64 2.64 4 4 C2.68 5.32 1.36 6.64 0 8 C-0.66 7.01 -1.32 6.02 -2 5 C-1.125 2.3125 -1.125 2.3125 0 0 Z " fill="#A379CC" transform="translate(42,106)"/>
<path d="M0 0 C0.66 0.33 1.32 0.66 2 1 C2.625 3.5625 2.625 3.5625 3 6 C0 7 0 7 -3 6 C-1.125 1.125 -1.125 1.125 0 0 Z " fill="#7BB1E6" transform="translate(125,89)"/>
<path d="M0 0 C0 0.99 0 1.98 0 3 C-1.98 3 -3.96 3 -6 3 C-6.33 2.01 -6.66 1.02 -7 0 C-4.3333581 -1.33332095 -2.83319697 -0.67102033 0 0 Z " fill="#70BEF5" transform="translate(140,84)"/>
<path d="M0 0 C0.33 0.66 0.66 1.32 1 2 C4.96 2 8.92 2 13 2 C13 2.33 13 2.66 13 3 C6.565 3.495 6.565 3.495 0 4 C0 2.68 0 1.36 0 0 Z " fill="#B846A6" transform="translate(107,191)"/>
<path d="M0 0 C1.83832664 3.10217621 2.47446226 5.39408679 2 9 C1.01 9.66 0.02 10.32 -1 11 C-2.41687119 6.74938644 -1.19320039 4.28148375 0 0 Z " fill="#B55FB7" transform="translate(38,139)"/>
<path d="M0 0 C3.53790403 3.69172595 3.59115883 7.09390595 4 12 C2 11 2 11 1.1484375 8.71484375 C0.89320312 7.79832031 0.63796875 6.88179687 0.375 5.9375 C0.11460938 5.01839844 -0.14578125 4.09929687 -0.4140625 3.15234375 C-0.60742188 2.44207031 -0.80078125 1.73179687 -1 1 C-0.67 0.67 -0.34 0.34 0 0 Z " fill="#665AA7" transform="translate(84,128)"/>
<path d="M0 0 C1.90318884 2.85478326 2.4619099 4.41941308 3.125 7.6875 C3.29257813 8.49574219 3.46015625 9.30398437 3.6328125 10.13671875 C3.75398438 10.75160156 3.87515625 11.36648437 4 12 C3.01 11.67 2.02 11.34 1 11 C0.4254048 7.26513121 0 3.78706732 0 0 Z " fill="#4F51A8" transform="translate(109,101)"/>
<path d="M0 0 C0.66 0 1.32 0 2 0 C2.33 1.98 2.66 3.96 3 6 C3.66 6 4.32 6 5 6 C5 7.98 5 9.96 5 12 C3 11 3 11 2.1484375 8.49609375 C1.89320312 7.48675781 1.63796875 6.47742188 1.375 5.4375 C1.11460938 4.42558594 0.85421875 3.41367188 0.5859375 2.37109375 C0.39257812 1.58863281 0.19921875 0.80617187 0 0 Z " fill="#624EBA" transform="translate(97,167)"/>
<path d="M0 0 C2.475 0.495 2.475 0.495 5 1 C3.68 3.64 2.36 6.28 1 9 C0.67 9 0.34 9 0 9 C0 6.03 0 3.06 0 0 Z " fill="#948BDD" transform="translate(115,118)"/>
<path d="M0 0 C0.9075 0.103125 1.815 0.20625 2.75 0.3125 C-0.3754959 2.95715038 -3.33788267 4.15664715 -7.25 5.3125 C-4.05 0.38942308 -4.05 0.38942308 0 0 Z " fill="#CA3CA1" transform="translate(129.25,187.6875)"/>
<path d="M0 0 C0.66 0 1.32 0 2 0 C2.36923077 5.53846154 2.36923077 5.53846154 0.5 7.875 C-0.2425 8.431875 -0.2425 8.431875 -1 9 C-1.125 2.25 -1.125 2.25 0 0 Z " fill="#EF22AB" transform="translate(38,177)"/>
<path d="M0 0 C2.56616632 3.84924948 2.55097676 6.4349304 3 11 C0.35534962 7.8745041 -0.84414715 4.91211733 -2 1 C-1.34 0.67 -0.68 0.34 0 0 Z " fill="#584BBF" transform="translate(174,171)"/>
<path d="M0 0 C0.66 0 1.32 0 2 0 C2 0.66 2 1.32 2 2 C2.66 2 3.32 2 4 2 C4 2.99 4 3.98 4 5 C4.66 5.33 5.32 5.66 6 6 C5.34 6.66 4.68 7.32 4 8 C0 1.125 0 1.125 0 0 Z " fill="#5C4FBA" transform="translate(167,164)"/>
<path d="M0 0 C0.33 0 0.66 0 1 0 C1 1.65 1 3.3 1 5 C0.34 5 -0.32 5 -1 5 C-1.33 6.65 -1.66 8.3 -2 10 C-2.33 10 -2.66 10 -3 10 C-3.23226952 6.59338044 -3.35720302 4.59016151 -1.5625 1.625 C-0.7890625 0.820625 -0.7890625 0.820625 0 0 Z " fill="#CE4FB8" transform="translate(40,146)"/>
<path d="M0 0 C2.475 0.99 2.475 0.99 5 2 C4.67 2.66 4.34 3.32 4 4 C0.9375 4.625 0.9375 4.625 -2 5 C-1.34 3.35 -0.68 1.7 0 0 Z " fill="#70BBF3" transform="translate(70,40)"/>
<path d="M0 0 C2.0625 2.3125 2.0625 2.3125 4 5 C3.67 5.99 3.34 6.98 3 8 C2.34 8 1.68 8 1 8 C-0.35439668 5.29120665 -0.06501451 2.99066732 0 0 Z " fill="#5953A9" transform="translate(185,133)"/>
<path d="M0 0 C2.5654594 2.5654594 2.54046087 4.47686668 3 8 C2.01 8 1.02 8 0 8 C-0.38063221 5.6739143 -0.71269945 3.33944736 -1 1 C-0.67 0.67 -0.34 0.34 0 0 Z " fill="#4648AD" transform="translate(173,111)"/>
<path d="M0 0 C0.66 0 1.32 0 2 0 C2.33 0.99 2.66 1.98 3 3 C3.99 2.67 4.98 2.34 6 2 C5.34 3.65 4.68 5.3 4 7 C3.01 6.67 2.02 6.34 1 6 C0.67 4.02 0.34 2.04 0 0 Z " fill="#3649A1" transform="translate(104,105)"/>
<path d="M0 0 C0.66 0 1.32 0 2 0 C0.125 5.75 0.125 5.75 -1 8 C-1.66 8 -2.32 8 -3 8 C-2.45276317 4.62537285 -1.9451 2.91765 0 0 Z " fill="#83A9DA" transform="translate(55,43)"/>
<path d="M0 0 C0.66 0 1.32 0 2 0 C2 3.3 2 6.6 2 10 C1.67 10 1.34 10 1 10 C0.855625 9.236875 0.71125 8.47375 0.5625 7.6875 C0.0367406 4.91827092 0.0367406 4.91827092 -1 2 C-0.67 1.34 -0.34 0.68 0 0 Z " fill="#729CF0" transform="translate(83,34)"/>
</svg>
